<svg xmlns="http://www.w3.org/2000/svg" viewBox="0 0 128 128">
  <path fill-rule="evenodd" d="M81 36 64 0 47 36l-1 2-9-10a6 6 0 0 0-9 9l10 10h-2L0 64l36 17h2L28 91a6 6 0 1 0 9 9l9-10 1 2 17 36 17-36v-2l9 10a6 6 0 1 0 9-9l-9-9 2-1 36-17-36-17-2-1 9-9a6 6 0 1 0-9-9l-9 10-1-2Zm-17 2-11 27-11-27 11-20 11 20Zm-2 51-11 20-11-20 11-27 11 27ZM38 64 11 53l27-11 20 11-20 11Zm53 0-27 11 20-11-20-11 27 11ZM64 73l-7 17-7-17 7-15 7 15Zm0-31-7-15 7-17 7 17-7 15Zm14-7 15 7-17 7 2-14Zm-6 35 18 3-12 12-6-15ZM38 55l15-7-2 14-13-7Zm2 24-3 18-12-12 15-6Zm32 3-15 6-3-18 18 12Zm-42 0-6 15-12-12 18-3Zm22-20-7 14-7-14 7-14 7 14Z" clip-rule="evenodd"/>
</svg>
